<svg width="59" height="39" viewBox="0 0 59 39" fill="none" xmlns="http://www.w3.org/2000/svg">
<path d="M4.92 21.16C2.52 19.92 1.28 18.04 1.28 15.6C1.28 11.52 5.52 8.44 11.96 8.44C15.76 8.44 19.04 9.8 20.6 11.56C21.44 9.64 22.52 8.76 24.24 8.76C25.88 8.76 27.12 9.84 27.12 11.4C27.12 12.64 26.32 13.52 24.92 13.52C23.6 13.52 22.8 12.68 22.8 11.4C22.8 10.84 22.96 10.32 23.28 9.76C22.24 10 21.72 10.76 21.28 12.2C21.92 13.2 22.2 14.16 22.2 15.28C22.2 19.52 18.28 22.32 11.32 22.32C8.8 22.32 7 21.76 5.92 21.76C4.56 21.76 2.96 22.6 2.96 23.52C2.96 24.48 4 24.56 6.72 24.56H17.44C22.28 24.56 24.56 26.4 24.56 30.84C24.56 36.48 20.24 39 11.52 39C4.36 39 0.84 37.96 0.84 35.56C0.84 34.28 2.16 33.48 4.64 33.4C2.08 32.44 0.2 29.52 0.2 26.56C0.2 23.84 1.76 22.08 4.92 21.16ZM3.08 35.6C3.08 37.4 5.76 38.28 11.12 38.28C17.4 38.28 20.52 37.2 20.52 35.28C20.52 33.48 18.04 33.36 12.36 33.36C6 33.36 3.08 33.76 3.08 35.6ZM10.44 18.08C10.44 20.44 10.6 21.6 11.76 21.6C12.92 21.6 13.04 20.44 13.04 18.08V12.52C13.04 10.16 12.92 9 11.76 9C10.6 9 10.44 10.2 10.44 12.52V18.08ZM27.2359 28.24H30.7559V1.32H27.2359V0.559999H58.4759V12.52H57.9959C54.3559 4.84 50.7159 1.32 45.3959 1.32H43.3559V13.6H43.4359C46.6759 13.6 49.0359 11.36 49.3159 7.32H50.0759V20.68H49.3159C49.0359 16.72 46.7959 14.4 43.4359 14.4H43.3559V28.24H47.3959V29H27.2359V28.24Z" fill="black"/>
</svg>
