<svg width="24" height="24" viewBox="0 0 24 24" fill="none" xmlns="http://www.w3.org/2000/svg">
<path fill-rule="evenodd" clip-rule="evenodd" d="M11.2929 3.29303C11.4804 3.10556 11.7348 3.00024 11.9999 3.00024C12.2651 3.00024 12.5194 3.10556 12.7069 3.29303L18.7069 9.29303L20.7069 11.293C20.8891 11.4816 20.9899 11.7342 20.9876 11.9964C20.9853 12.2586 20.8801 12.5094 20.6947 12.6948C20.5093 12.8803 20.2585 12.9854 19.9963 12.9877C19.7341 12.99 19.4815 12.8892 19.2929 12.707L18.9999 12.414V19C18.9999 19.5305 18.7892 20.0392 18.4141 20.4142C18.0391 20.7893 17.5304 21 16.9999 21H13.9999C13.7347 21 13.4803 20.8947 13.2928 20.7071C13.1053 20.5196 12.9999 20.2652 12.9999 20V17H10.9999V20C10.9999 20.2652 10.8946 20.5196 10.707 20.7071C10.5195 20.8947 10.2651 21 9.99992 21H6.99992C6.46949 21 5.96078 20.7893 5.58571 20.4142C5.21063 20.0392 4.99992 19.5305 4.99992 19V12.414L4.70692 12.707C4.51832 12.8892 4.26571 12.99 4.00352 12.9877C3.74132 12.9854 3.49051 12.8803 3.3051 12.6948C3.11969 12.5094 3.01452 12.2586 3.01224 11.9964C3.00997 11.7342 3.11076 11.4816 3.29292 11.293L5.29292 9.29303L11.2929 3.29303Z" fill="#242424"/>
</svg>
