<svg width="305" height="126" viewBox="0 0 138 62" fill="none" xmlns="http://www.w3.org/2000/svg">
<g filter="url(#filter0_d_203_334)">
<path d="M4.5 48.5L7.72082 40.7251L16.8432 35.6956L20.9405 29.7187L19.3943 28.1151V25.491L18.1574 22.2839V20.4616L19.3943 12.4437L25.8109 7.41432H31.5317H35.0106L36.7114 12.4437L38.4121 18.8581V22.2839L36.7114 29.7187L35.0106 32.9258V36.7161L36.7114 39.1215L41.9683 40.7251L43.901 43.1304L49.4672 40.7251L50.7041 35.6956L49.4672 29.7187L47.7664 25.491H49.4672V16.234L56.2703 12.4437L63.0734 10.9859L66.9388 14.0473L69.7219 18.8581V25.491V29.7187L74.3604 28.1151L78.2258 25.491L75.6747 22.2839L74.3604 16.234L72.0412 10.9859L78.2258 2.38491L84.797 1L92.4505 3.76982L96.3159 10.9859V16.234L95.2336 22.2839V24.4706L105.052 27.0946L106.289 22.2839L111.468 18.8581H117.808H121.209L127.162 22.2839L129.326 27.0946L130.409 32.9258V36.7161L129.326 43.1304L127.162 45.7545V49.1803L133.578 52.7519" stroke="white" stroke-width="2"/>
</g>
<defs>
<filter id="filter0_d_203_334" x="0.0380859" y="0.481323" width="137.784" height="60.7075" filterUnits="userSpaceOnUse" color-interpolation-filters="sRGB">
<feFlood flood-opacity="0" result="BackgroundImageFix"/>
<feColorMatrix in="SourceAlpha" type="matrix" values="0 0 0 0 0 0 0 0 0 0 0 0 0 0 0 0 0 0 127 0" result="hardAlpha"/>
<feOffset dy="4"/>
<feGaussianBlur stdDeviation="2"/>
<feComposite in2="hardAlpha" operator="out"/>
<feColorMatrix type="matrix" values="0 0 0 0 0 0 0 0 0 0 0 0 0 0 0 0 0 0 0.25 0"/>
<feBlend mode="normal" in2="BackgroundImageFix" result="effect1_dropShadow_203_334"/>
<feBlend mode="normal" in="SourceGraphic" in2="effect1_dropShadow_203_334" result="shape"/>
</filter>
</defs>
</svg>
