<svg width="305" height="126" viewBox="0 0 305 126" fill="none" xmlns="http://www.w3.org/2000/svg">
<path d="M4.19132 95.665L1 125H303L286.875 113.583L272.934 105.813V98.3606L277.637 92.6522L279.989 78.6982V70.4527L277.637 57.7673L272.934 47.3018L260.001 39.8491H252.611H238.838L227.584 47.3018L224.897 57.7673L203.565 52.0588V47.3018L205.917 34.1407V22.7238L197.518 7.02558L180.89 1L166.613 4.01279L153.176 22.7238L158.215 34.1407L161.07 47.3018L166.613 54.2788L158.215 59.9872L148.137 63.4757V54.2788V39.8491L142.09 29.3836L133.692 22.7238L118.911 25.8951L104.13 34.1407V54.2788H100.435L104.13 63.4757L106.818 76.4783L104.13 87.4194L92.0367 92.6522L87.8376 87.4194L76.416 83.9309L72.7208 78.6982V70.4527L76.416 63.4757L80.1112 47.3018V39.8491L76.416 25.8951L72.7208 14.954H65.1624H52.733L38.792 25.8951L36.1046 43.3376V47.3018L38.792 54.2788V59.9872L42.1513 63.4757L33.2492 76.4783L13.4294 87.4194L4.19132 95.665Z" stroke="white" stroke-width="5"/>
</svg>
