<svg width="28" height="28" viewBox="0 0 28 28" fill="none" xmlns="http://www.w3.org/2000/svg">
<path d="M14.8749 7.875C14.8749 9.03532 14.414 10.1481 13.5935 10.9686C12.773 11.7891 11.6602 12.25 10.4999 12.25C9.33959 12.25 8.22679 11.7891 7.40632 10.9686C6.58585 10.1481 6.12491 9.03532 6.12491 7.875C6.12491 6.71468 6.58585 5.60188 7.40632 4.78141C8.22679 3.96094 9.33959 3.5 10.4999 3.5C11.6602 3.5 12.773 3.96094 13.5935 4.78141C14.414 5.60188 14.8749 6.71468 14.8749 7.875ZM19.0749 21.0105C19.2674 21.959 18.4659 22.75 17.4999 22.75H3.49991C2.53216 22.75 1.73241 21.959 1.92141 21.0105C2.324 19.0326 3.39778 17.2545 4.96094 15.9775C6.52409 14.7005 8.48055 14.0029 10.499 14.0029C12.5175 14.0029 14.474 14.7005 16.0371 15.9775C17.6003 17.2545 18.6741 19.0326 19.0767 21.0105M24.5034 21H21.7209C21.7073 20.8296 21.6839 20.6602 21.6509 20.4925C21.3172 18.8412 20.6195 17.285 19.6087 15.9373C20.8949 15.5832 22.2677 15.7318 23.4485 16.3529C24.6292 16.974 25.5294 18.021 25.9664 19.2815C26.2814 20.195 25.4712 21 24.5034 21ZM20.9999 14C21.9282 14 22.8184 13.6313 23.4748 12.9749C24.1312 12.3185 24.4999 11.4283 24.4999 10.5C24.4999 9.57174 24.1312 8.6815 23.4748 8.02513C22.8184 7.36875 21.9282 7 20.9999 7C20.0717 7 19.1814 7.36875 18.525 8.02513C17.8687 8.6815 17.4999 9.57174 17.4999 10.5C17.4999 11.4283 17.8687 12.3185 18.525 12.9749C19.1814 13.6313 20.0717 14 20.9999 14Z" fill="#242424"/>
</svg>
